<svg viewBox="0 0 300 180" version="1.1" xmlns="http://www.w3.org/2000/svg">
  <defs>
    <style>
      .cls-1 {
        fill: #fff;
      }

      .cls-2, .cls-3 {
        fill: #9d79ae;
      }

      .cls-4 {
        fill: #c59fc6;
      }

      .cls-3 {
        fill-rule: evenodd;
      }

      .cls-5 {
        fill: #9d78b1;
      }
    </style>
  </defs>
  
  <g>
    <g id="Layer_1">
      <g>
        <path d="M77.5,49.94s4.82-24.52,26.27-32.62c21.46-8.1,35.91,0,35.91,0,11.94-12.62,71.53-36.73,108.51,27,0,0,35.17-3.47,44.84,36.9,0,0,3.3,18.18-7.79,31.39,0,0,4.83,48.63-47.45,58.96,0,0-35.38,9.39-72-13.77,0,0-38.62,33.5-89.98,13.87-16.87-6.45-31.48-17.88-41.84-32.68-1.87-2.67-3.59-5.44-4.96-8.18,0,0-30.68-17.97-21.96-50.23,3.31-12.26,11.63-22.68,22.79-28.74s27.24-10.21,47.65-1.89Z" class="cls-1"></path>
        <g>
          <g>
            <path d="M91.41,117.66h.22l4.3,9.28h-.97l-1.42-3.05h-4.07l-1.42,3.05h-.97l4.33-9.28ZM89.89,123.01h3.24l-1.61-3.48-1.63,3.48Z" class="cls-5"></path>
            <path d="M96.44,126.14l.56-.63c.22.25.45.44.69.57.24.13.48.19.74.19.17,0,.33-.03.48-.08.15-.06.28-.14.4-.24s.21-.22.28-.36c.07-.14.1-.29.1-.45,0-.24-.06-.44-.18-.6-.12-.16-.31-.31-.56-.45-.31-.17-.6-.34-.87-.49-.27-.16-.51-.32-.7-.5s-.35-.38-.46-.6c-.11-.22-.17-.48-.17-.78,0-.28.05-.52.15-.74.1-.22.23-.41.4-.57.17-.16.37-.29.6-.37.23-.09.48-.13.74-.13.38,0,.72.08,1.01.25.3.17.59.39.89.68l-.57.58c-.21-.2-.42-.36-.64-.48-.22-.12-.47-.18-.74-.18s-.53.09-.73.26c-.2.18-.3.39-.3.65s.07.46.21.63c.14.17.35.33.63.47.34.19.65.36.92.52s.49.33.67.5c.18.17.32.36.41.57.09.21.14.45.14.74,0,.27-.05.52-.15.77-.1.25-.24.46-.42.65-.18.19-.4.33-.65.45-.25.11-.54.17-.85.17-.39,0-.76-.08-1.12-.25-.36-.17-.66-.41-.91-.73Z" class="cls-5"></path>
            <path d="M105.62,129.45v-9.37h.88v1.25c.34-.48.75-.84,1.21-1.08.46-.24.97-.36,1.52-.36.5,0,.97.09,1.4.28.43.19.81.45,1.13.78.32.33.57.71.75,1.14s.27.9.27,1.39-.09.95-.26,1.39c-.18.43-.42.82-.74,1.15-.32.33-.69.59-1.12.79-.43.19-.89.29-1.4.29-1.09,0-2.01-.45-2.75-1.34v3.68h-.88ZM109.16,126.31c.38,0,.73-.08,1.07-.23.33-.15.62-.35.87-.61.25-.25.44-.55.57-.89.14-.34.21-.7.21-1.07s-.07-.72-.2-1.05c-.13-.33-.32-.62-.56-.88-.24-.25-.53-.46-.86-.61-.33-.15-.7-.23-1.09-.23s-.75.07-1.08.21c-.33.14-.62.34-.87.59-.25.25-.44.54-.57.89-.14.34-.21.71-.21,1.1,0,.42.08.81.23,1.15.15.34.35.64.61.87.25.24.54.42.87.55.33.13.67.19,1.02.19Z" class="cls-5"></path>
            <path d="M114.29,120.08h.93v3.91c0,.77.19,1.34.56,1.71.37.37.89.56,1.53.56.35,0,.66-.05.92-.16s.47-.26.65-.45c.17-.19.3-.43.39-.7.09-.27.13-.57.13-.89v-3.98h.93v3.55c0,1.16-.25,2.03-.76,2.61-.51.58-1.26.87-2.25.87s-1.74-.29-2.25-.87c-.51-.58-.77-1.45-.77-2.61v-3.55Z" class="cls-5"></path>
            <path d="M122.31,126.94v-6.86h.88v.99c.26-.38.53-.67.81-.87.28-.2.6-.3.96-.3.18,0,.33.03.46.08.12.05.23.12.33.22l-.47.68c-.05-.03-.12-.05-.2-.08-.08-.03-.17-.05-.26-.05-.23,0-.45.06-.65.19-.2.13-.37.31-.52.56-.15.24-.26.53-.34.86-.08.33-.12.7-.12,1.12v3.46h-.88Z" class="cls-5"></path>
            <path d="M126.18,123.53c0-.47.08-.92.25-1.36.17-.44.4-.83.71-1.16s.68-.6,1.11-.81c.43-.2.92-.3,1.45-.3s.98.09,1.41.27.81.43,1.12.75c.32.32.57.7.75,1.14.18.44.27.93.27,1.45v.06h-6.18c.02.4.09.76.23,1.09.13.33.32.61.55.85.23.24.51.42.83.55.32.13.68.19,1.07.19.34,0,.63-.04.89-.13.26-.09.49-.2.69-.36.2-.15.38-.32.53-.51.15-.19.29-.39.42-.59l.74.39c-.33.64-.76,1.14-1.31,1.5-.55.37-1.2.55-1.96.55-.57,0-1.08-.1-1.52-.29s-.82-.45-1.12-.78c-.3-.33-.53-.71-.69-1.14-.16-.43-.24-.89-.24-1.36ZM127.17,122.81h5.12c-.18-.71-.51-1.24-.98-1.56-.47-.33-1-.49-1.6-.49s-1.15.17-1.59.5c-.44.34-.76.85-.96,1.55Z" class="cls-5"></path>
            <path d="M138.15,123.49c0-.49.09-.95.27-1.39s.43-.82.75-1.14c.32-.33.69-.59,1.12-.78.43-.19.9-.28,1.4-.28.56,0,1.07.12,1.53.36s.86.6,1.21,1.08v-1.25h.87v6.86h-.87v-1.18c-.38.46-.8.79-1.26,1.01s-.96.33-1.5.33c-.5,0-.96-.1-1.4-.29s-.8-.46-1.12-.79c-.31-.33-.56-.71-.74-1.15s-.26-.9-.26-1.39ZM141.76,126.31c.35,0,.69-.06,1.02-.19.33-.13.62-.31.87-.55.25-.24.46-.53.61-.87.15-.34.23-.73.23-1.15,0-.4-.07-.76-.21-1.1-.14-.34-.33-.64-.57-.89-.25-.25-.53-.45-.87-.59-.33-.14-.69-.21-1.08-.21s-.76.08-1.09.23c-.33.15-.62.35-.86.61-.24.25-.43.55-.56.88-.13.33-.2.68-.2,1.05s.07.72.21,1.06c.14.34.33.63.57.89s.53.46.85.61c.33.15.68.23,1.07.23Z" class="cls-5"></path>
            <path d="M146.77,126.14l.56-.63c.22.25.45.44.69.57.24.13.48.19.74.19.17,0,.33-.03.48-.08.15-.06.28-.14.4-.24s.21-.22.28-.36c.07-.14.1-.29.1-.45,0-.24-.06-.44-.18-.6-.12-.16-.31-.31-.56-.45-.31-.17-.6-.34-.87-.49-.27-.16-.51-.32-.7-.5s-.35-.38-.46-.6c-.11-.22-.17-.48-.17-.78,0-.28.05-.52.15-.74.1-.22.23-.41.4-.57.17-.16.37-.29.6-.37.23-.09.48-.13.74-.13.38,0,.72.08,1.01.25.3.17.59.39.89.68l-.57.58c-.21-.2-.42-.36-.64-.48-.22-.12-.47-.18-.74-.18s-.53.09-.73.26c-.2.18-.3.39-.3.65s.07.46.21.63c.14.17.35.33.63.47.34.19.65.36.92.52s.49.33.67.5c.18.17.32.36.41.57.09.21.14.45.14.74,0,.27-.05.52-.15.77-.1.25-.24.46-.42.65-.18.19-.4.33-.65.45-.25.11-.54.17-.85.17-.39,0-.76-.08-1.12-.25-.36-.17-.66-.41-.91-.73Z" class="cls-5"></path>
            <path d="M156.07,120.08l2.38,5.39,2.33-5.39h.92l-4.1,9.37h-.93l1.33-2.97-2.83-6.39h.9Z" class="cls-5"></path>
            <path d="M162.5,123.53c0-.49.09-.96.27-1.4.18-.44.43-.82.75-1.16.32-.33.7-.59,1.13-.79s.91-.29,1.43-.29.99.1,1.43.29c.43.19.81.46,1.13.79.32.33.57.72.75,1.16s.27.9.27,1.4-.09.95-.27,1.39c-.18.44-.43.82-.74,1.14-.31.33-.69.59-1.13.78s-.92.28-1.43.28-.99-.09-1.43-.28-.82-.45-1.13-.78c-.31-.33-.56-.71-.74-1.14-.18-.43-.27-.9-.27-1.39ZM163.41,123.54c0,.37.07.72.2,1.05.13.33.32.62.56.87.24.25.52.45.85.59.33.14.68.21,1.07.21s.74-.07,1.07-.21c.32-.14.6-.34.85-.59.24-.25.43-.54.56-.87.13-.33.2-.68.2-1.05s-.07-.74-.21-1.08c-.14-.34-.33-.64-.57-.89-.24-.25-.53-.45-.85-.6-.33-.15-.67-.22-1.03-.22s-.72.07-1.04.22-.61.35-.85.6c-.24.25-.43.55-.57.89-.14.34-.21.7-.21,1.08Z" class="cls-5"></path>
            <path d="M171.17,120.08h.93v3.91c0,.77.19,1.34.56,1.71.37.37.89.56,1.53.56.35,0,.66-.05.92-.16s.47-.26.65-.45c.17-.19.3-.43.39-.7.09-.27.13-.57.13-.89v-3.98h.93v3.55c0,1.16-.25,2.03-.76,2.61-.51.58-1.26.87-2.25.87s-1.74-.29-2.25-.87c-.51-.58-.77-1.45-.77-2.61v-3.55Z" class="cls-5"></path>
            <path d="M179.19,126.94v-6.86h.88v.99c.26-.38.53-.67.81-.87.28-.2.6-.3.96-.3.18,0,.33.03.46.08.12.05.23.12.33.22l-.47.68c-.05-.03-.12-.05-.2-.08-.08-.03-.17-.05-.26-.05-.23,0-.45.06-.65.19-.2.13-.37.31-.52.56-.15.24-.26.53-.34.86-.08.33-.12.7-.12,1.12v3.46h-.88Z" class="cls-5"></path>
            <path d="M187.71,117.43v9.51h-.88v-9.51h.88Z" class="cls-5"></path>
            <path d="M189.22,123.53c0-.49.09-.96.27-1.4s.43-.82.75-1.16c.32-.33.7-.59,1.13-.79s.91-.29,1.43-.29.99.1,1.43.29c.43.19.81.46,1.13.79.32.33.57.72.75,1.16s.27.9.27,1.4-.09.95-.27,1.39c-.18.44-.43.82-.74,1.14-.31.33-.69.59-1.13.78s-.92.28-1.43.28-.99-.09-1.43-.28-.82-.45-1.13-.78c-.31-.33-.56-.71-.74-1.14-.18-.43-.27-.9-.27-1.39ZM190.12,123.54c0,.37.07.72.2,1.05.13.33.32.62.56.87.24.25.52.45.85.59.33.14.68.21,1.07.21s.74-.07,1.07-.21c.32-.14.6-.34.85-.59.24-.25.43-.54.56-.87.13-.33.2-.68.2-1.05s-.07-.74-.21-1.08c-.14-.34-.33-.64-.57-.89-.24-.25-.53-.45-.85-.6-.33-.15-.67-.22-1.03-.22s-.72.07-1.04.22-.61.35-.85.6c-.24.25-.43.55-.57.89-.14.34-.21.7-.21,1.08Z" class="cls-5"></path>
            <path d="M197.36,120.08h.94l2.3,5.14,2.27-5.14h.94l-3.06,6.86h-.31l-3.09-6.86Z" class="cls-5"></path>
            <path d="M204.84,123.53c0-.47.08-.92.25-1.36.17-.44.4-.83.71-1.16s.68-.6,1.11-.81c.43-.2.92-.3,1.45-.3s.98.09,1.41.27.81.43,1.12.75c.32.32.57.7.75,1.14.18.44.27.93.27,1.45v.06h-6.18c.02.4.09.76.23,1.09.13.33.32.61.55.85.23.24.51.42.83.55.32.13.68.19,1.07.19.34,0,.63-.04.89-.13.26-.09.49-.2.69-.36.2-.15.38-.32.53-.51.15-.19.29-.39.42-.59l.74.39c-.33.64-.76,1.14-1.31,1.5-.55.37-1.2.55-1.96.55-.57,0-1.08-.1-1.52-.29s-.82-.45-1.12-.78c-.3-.33-.53-.71-.69-1.14-.16-.43-.24-.89-.24-1.36ZM205.83,122.81h5.12c-.18-.71-.51-1.24-.98-1.56-.47-.33-1-.49-1.6-.49s-1.15.17-1.59.5c-.44.34-.76.85-.96,1.55Z" class="cls-5"></path>
          </g>
          <g>
            <path d="M185.94,106.66c.16.1.38.17.6.17.46,0,.91-.32,1.14-.8,0-.04.01-.07.02-.11v-.02c.03-.23.06-.41.11-.61.74-3.55,1.03-7.33,1.32-10.99.08-1.02.16-2.05.25-3.07l.08-.94.91-.25c.6-.16.85-.67.89-1.09.03-.4-.13-.92-.67-1.17l-.89-.4.1-.97c.35-3.54.62-6.89.83-10.25l.02-.41c.32-5.16.26-6.46.21-6.78-.1-.55-.59-1.05-1.03-1.05-.09,0-.23.03-.3.07-.89.4-1.51,1.37-1.38,1.85.08.21.25.69.05,1.26-1.05,5.03-1.74,10.36-2.41,15.51l-.18,1.37-1.06.12c-3.12.35-6.28.84-9.34,1.31-1.86.29-3.77.58-5.66.84l-1.62.22.08-1.63c.21-4.41.5-8.8.84-13.06.03-.42.06-.86.09-1.3l.03-.4c.19-2.57.38-5.23.16-7.75-.13-1.05-1.05-1.62-1.85-1.62-1.34,0-1.79,1.59-1.93,2.54-1.24,8.04-1.94,15.5-2.14,22.8l-.03,1.2-1.2.11c-.26.02-.51.06-.75.09-.49.06-1,.13-1.53.13h-.5l-.38-.33c-.2-.17-.36-.23-.65-.23-.45,0-.97.31-1.25.74-.22.34-.25.68-.1,1.01.29.51.43.59.43.6,1.14.52,2.62.45,4.04.39l1.78-.08v1.41c0,2.41,0,8.8,1.67,12.13.29.58.78,1.08,1.14,1.4.44.41,1.15.62,1.86.57.36-.03.65-.19.87-.5.28-.39.39-.92.3-1.45l-.29-.44c-.38-.57-.53-.8-.61-1.05l-.04-.14c-.23-1.26-.19-5.19-.13-9.11.01-.83.02-1.47.02-1.83v-1.26l1.25-.09c4.42-.33,9.15-.74,13.8-1.52.22-.08.88-.33,1.51.11.4.27.62.72.62,1.22v.12c-.39,3.38-.83,7.19-.36,10.7.11.92.69,2.29,1.25,2.7Z" class="cls-4"></path>
            <path d="M201.72,90.92c1.76.7,3.07,1.83,3.93,3.41.86,1.58,1.08,3.27.66,5.08-.19.79-.44,1.58-.77,2.37-.32.79-.7,1.51-1.11,2.16-1.39,2.23-2.9,3.35-4.52,3.38-1.62.02-3.27-1.01-4.94-3.1-.46-.74-.77-1.64-.9-2.68-.14-1.04-.21-2.06-.21-3.06s.05-1.89.14-2.68c.09-.79.16-1.3.21-1.53.6-1.81,1.55-3,2.85-3.58,1.3-.58,2.85-.5,4.66.24ZM199.28,103.65c1.35-.7,2.27-1.57,2.78-2.61.51-1.04.77-2.19.77-3.45,0-.79-.28-1.4-.84-1.84-.56-.44-1.53-.82-2.92-1.15-.19,1.58-.35,3.1-.49,4.56s.09,2.96.7,4.49Z" class="cls-4"></path>
            <g>
              <path d="M62.82,75.25c11.64,10.75,11.95-7.94,22.73-11.5,5.87-1.94,9.64,4.32,9.55,9.55-.39,11.76-10.81,29.16-19.73,36.64-7.7,6.46-3.92,8.04,1.88,3.55,9.03-7,19.43-24.54,21.17-36.41,2.5-20.91-16.78-22.77-24.54-8.2-4.66,8.73-4.97,4.49-13.24-1.02-12.68-8.45-19.76,2.38-16.73,14.86,2.29,9.42,6.76,17.41,11.35,23.94,1.12,1.59,3.32,1.49,2.1-1.3-2.9-6.62-8.19-15.64-9.02-24.15-1.25-12.73,5.18-14.68,14.48-5.94" class="cls-3"></path>
              <path d="M105.93,90.92c1.76.7,3.07,1.83,3.93,3.41.86,1.58,1.08,3.27.66,5.08-.19.79-.44,1.58-.77,2.37-.33.79-.7,1.51-1.11,2.16-1.39,2.23-2.9,3.35-4.52,3.38-1.62.02-3.27-1.01-4.94-3.1-.46-.74-.77-1.64-.9-2.68-.14-1.04-.21-2.06-.21-3.06s.05-1.89.14-2.68c.09-.79.16-1.3.21-1.53.6-1.81,1.55-3,2.85-3.58,1.3-.58,2.85-.5,4.66.24ZM103.49,103.66c1.35-.7,2.27-1.57,2.78-2.61.51-1.04.77-2.19.77-3.45,0-.79-.28-1.4-.84-1.84-.56-.44-1.53-.82-2.92-1.15-.19,1.58-.35,3.1-.49,4.56-.14,1.46.09,2.96.7,4.49Z" class="cls-2"></path>
            </g>
            <path d="M254.29,103.03c.28.37.39.78.35,1.22-.05.44-.26.82-.63,1.15-.05.05-.27.21-.66.49-.39.28-.94.56-1.64.84-.7.28-1.5.5-2.4.66-.9.16-1.89.13-2.96-.1-.37-.09-.6-.16-.7-.21-1.49-.46-2.62-1.28-3.41-2.44-.79-1.16-1.35-2.33-1.67-3.51-.32-1.18-.5-2.24-.52-3.17-.02-.93-.03-1.44-.03-1.53,0-.14.02-.25.07-.35v.07c.09-1.16.26-2.2.49-3.13.46-1.62,1.25-2.92,2.37-3.9,1.11-.97,2.41-1.51,3.9-1.6.79-.05,1.62.05,2.51.28.88.23,1.73.57,2.54,1.01.81.44,1.53.95,2.16,1.53.63.58,1.08,1.2,1.36,1.84.37.79.48,1.6.31,2.44-.16.84-.71,1.56-1.64,2.16-.84.65-1.72,1.21-2.64,1.67-.93.46-1.86.93-2.78,1.39-.51.28-1.06.51-1.64.7-.58.19-1.15.39-1.7.63l-.97.35c.28.56.64,1.07,1.08,1.53.44.46,1.01.77,1.7.9.65.14,1.26.15,1.84.03.58-.12,1.08-.27,1.5-.45.51-.18.97-.44,1.39-.77.37-.28.79-.41,1.25-.38.46.02.86.24,1.18.66ZM245.8,91.62c-1.81.93-2.44,2.78-1.88,5.57,1.76-.18,3.27-.54,4.52-1.08,1.25-.53,2.41-1.33,3.48-2.4-1.02-1.16-2.07-1.92-3.13-2.3-1.07-.37-2.07-.3-2.99.21Z" class="cls-4"></path>
            <path d="M141.23,96.04c-.55-2.26-2.07-3.41-4.52-3.41-1.41,0-2.59.41-3.49,1.22-.91.82-1.73,1.83-2.45,3.01l-.38.61c-.14.23-.39.34-.65.31-.26-.04-.47-.22-.55-.47-.4-1.32-.93-2.25-1.57-2.75-.64-.5-1.63-.76-2.95-.76-.92,0-1.79.16-2.57.46-.78.31-1.49.84-2.1,1.57-.26.29-.48.52-.69.69-.29.24-.39.28-.45.28-.11,0-.18-.12-.24-.41-.05-.24-.07-.53-.07-.88,0-.82-.13-1.46-.39-1.88-.25-.41-.85-.62-1.79-.62-.6,0-.84.09-.94.17-.12.09-.23.18-.32.28-.08.08-.14.23-.17.45-.03.23-.05.57-.07,1-.02.44-.02,1.04-.02,1.78,0,1.12.04,2.26.12,3.42.08,1.14.19,2.22.33,3.2.14.98.29,1.81.44,2.45.19.79.37,1.05.48,1.13.23.15.6.22,1.08.22.79,0,1.35-.11,1.67-.34.31-.22.46-.73.46-1.51,0-.29.06-.71.17-1.26.11-.55.26-1.13.45-1.74.19-.61.4-1.22.63-1.83.23-.61.46-1.16.68-1.62.19-.38.43-.76.71-1.14.28-.38.58-.72.87-1.02.3-.3.58-.55.85-.76.28-.22.5-.32.68-.32h.03s.09.05.09.05c.3.17.56.7.79,1.62.22.89.45,2.43.7,4.58.16,1.21.3,2.17.42,2.85.12.68.27,1.19.44,1.53.16.32.37.52.61.6.26.08.62.11,1.08.11.31,0,.6-.04.87-.11.25-.07.42-.16.47-.27.05-.07.14-.28.37-.91.19-.51.38-1.09.56-1.71.53-1.68,1.13-3.25,1.78-4.67.66-1.42,1.36-2.53,2.08-3.28.87-.9,1.45-1.33,1.79-1.33.25,0,.43.18.54.52.06.22.16.72.28,1.51.12.78.24,1.68.35,2.67.11,1,.22,2.03.33,3.09.11,1.06.18,1.98.21,2.72.02.23.03.45.05.67.03.51.06.98.14,1.4.11.57.4,1.33,1.72,1.33h.02c1.35,0,1.46-1.73,1.46-1.8.08-.5.12-1.32.12-2.52,0-1.04-.02-2.12-.07-3.21-.05-1.09-.12-2.11-.21-3.04-.09-.93-.19-1.59-.28-1.96Z" class="cls-2"></path>
            <path d="M155.05,105.38c.35-.79.32-1.63-.09-2.42-.46-.89-1.3-1.57-2.11-2.23-.62-.51-1.27-1.03-1.75-1.65-.57-.73-1.8-2.65-1-4.62.26-.65.77-1.27,1.45-1.78.3-.22.64-.43,1.06-.63.17-.08.36-.15.54-.21.24-.08.47-.16.67-.28.22-.14.45-.38.44-.64,0-.07-.02-.14-.05-.2-.23-.5-1.22-.73-1.85-.73,0,0-.02,0-.03,0-.87,0-1.84.22-2.68.61-1.54.71-2.84,2.1-3.57,3.8-.31.71-.45,1.37-.44,1.96.02,1.02.56,2.07,1.63,3.2.64.67,1.35,1.33,2.17,2.01.3.25.63.48.95.71.13.09.27.19.4.28.07.05.15.11.23.16.31.22.64.44.82.75.16.28.12.49.05.62-.13.25-.47.41-.91.43-.58.03-1.19-.08-1.92-.35-.14-.05-.27-.11-.4-.16-.41-.17-.79-.33-1.27-.33h0c-.58,0-1.1.21-1.46.58-.3.31-.45.71-.44,1.13.06,1.47,1.95,2.01,2.76,2.17l.11.02c2.01.4,3.21.21,3.65.1h0s.2-.06.2-.06c1.32-.37,2.39-1.21,2.84-2.25Z" class="cls-2"></path>
            <path d="M225.44,106.53c.05-.07.14-.28.37-.91.19-.51.38-1.09.56-1.71.53-1.68,1.13-3.25,1.78-4.67.66-1.42,1.36-2.53,2.08-3.28.87-.9,1.45-1.33,1.79-1.33.25,0,.43.18.54.52.06.22.16.72.28,1.51.12.78.24,1.68.35,2.67.11,1,.22,2.03.33,3.09.11,1.06.18,1.98.21,2.72.02.23.03.45.05.67.03.51.06.98.14,1.4.11.57.4,1.33,1.72,1.33h.02c1.35,0,1.46-1.73,1.46-1.8.08-.5.12-1.32.12-2.52,0-1.04-.02-2.12-.07-3.21-.05-1.09-.12-2.11-.21-3.04-.09-.93-.19-1.59-.28-1.96-.55-2.26-2.07-3.41-4.52-3.41-1.41,0-2.59.41-3.49,1.22-.91.82-1.73,1.83-2.45,3.01l-.38.61c-.14.23-.39.34-.65.31-.26-.04-.47-.22-.55-.47-.4-1.32-.93-2.25-1.57-2.75-.64-.5-1.63-.76-2.95-.76-.92,0-1.79.16-2.57.46-.78.31-1.49.84-2.1,1.57-.26.29-.48.52-.69.69-.29.24-.39.28-.45.28-.11,0-.18-.12-.24-.41-.05-.24-.07-.53-.07-.88,0-.82-.13-1.46-.39-1.88-.25-.41-.85-.62-1.79-.62-.6,0-.84.09-.94.17-.12.09-.23.18-.32.28-.08.08-.14.23-.17.45-.03.23-.05.57-.07,1-.02.44-.02,1.04-.02,1.78,0,1.12.04,2.26.12,3.42.08,1.14.19,2.22.33,3.2.14.98.29,1.81.44,2.45.19.79.37,1.05.48,1.13.23.15.6.22,1.08.22.79,0,1.35-.11,1.67-.34.31-.22.46-.73.46-1.51,0-.29.06-.71.17-1.26.11-.55.26-1.13.45-1.74.19-.61.4-1.22.63-1.83.23-.61.46-1.16.68-1.62.19-.38.43-.76.71-1.14.28-.38.58-.72.87-1.02.3-.3.58-.55.85-.76.28-.22.5-.32.68-.32h.03s.09.05.09.05c.3.17.56.7.79,1.62.22.89.45,2.43.7,4.58.16,1.21.3,2.17.42,2.85.12.68.27,1.19.44,1.53.16.32.37.52.61.6.26.08.62.11,1.08.11.31,0,.6-.04.87-.11.25-.07.42-.16.47-.27Z" class="cls-4"></path>
          </g>
        </g>
      </g>
    </g>
  </g>
</svg>